<?xml version="1.0" encoding="UTF-8"?>
<svg width="354px" height="119px" viewBox="0 0 354 119" version="1.1" xmlns="http://www.w3.org/2000/svg" xmlns:xlink="http://www.w3.org/1999/xlink">
    <!-- Generator: Sketch 51.3 (57544) - http://www.bohemiancoding.com/sketch -->
    <title>Group 2</title>
    <desc>Created with Sketch.</desc>
    <defs></defs>
    <g id="Page-1" stroke="none" stroke-width="1" fill="none" fill-rule="evenodd">
        <g id="Error-404@2x" transform="translate(-542.000000, -285.000000)" fill="#FFFFFF">
            <g id="Group-2" transform="translate(542.000000, 285.000000)">
                <path d="M29.2471429,117.493671 L29.2471429,114.345443 L44.7795238,114.345443 L44.7795238,87.8340506 L0,87.8340506 L0,84.6858228 L46.5971429,1.50632911 L75.1833333,1.50632911 L75.1833333,83.8573418 L91.5419048,83.8573418 L91.5419048,69.4417722 L94.6814286,69.4417722 L94.6814286,100.09557 L91.5419048,100.09557 L91.5419048,87.8340506 L75.1833333,87.8340506 L75.1833333,114.345443 L86.5847619,114.345443 L86.5847619,117.493671 L29.2471429,117.493671 Z M5.28761905,83.8573418 L44.7795238,83.8573418 L44.7795238,14.0992405 L5.28761905,83.8573418 Z" id="4"></path>
                <path d="M288.108615,117.493671 L288.108615,114.345443 L303.640996,114.345443 L303.640996,87.8340506 L258.861472,87.8340506 L258.861472,84.6858228 L305.458615,1.50632911 L334.044805,1.50632911 L334.044805,83.8573418 L350.403377,83.8573418 L350.403377,69.4417722 L353.5429,69.4417722 L353.5429,100.09557 L350.403377,100.09557 L350.403377,87.8340506 L334.044805,87.8340506 L334.044805,114.345443 L345.446234,114.345443 L345.446234,117.493671 L288.108615,117.493671 Z M264.149091,83.8573418 L303.640996,83.8573418 L303.640996,14.0992405 L264.149091,83.8573418 Z" id="4"></path>
                <path d="M192.478065,69.248129 L192.478065,48.8810323 C192.478065,23.0028387 191.759226,4.31303226 178.340903,4.31303226 C163.724516,4.31303226 163.005677,23.0028387 163.005677,50.0790968 L163.005677,68.7689032 C163.005677,96.564 163.484903,114.534968 178.10129,114.534968 C191.759226,114.534968 192.478065,100.397806 192.478065,69.248129 Z M117,59.9032258 C117,20.6067097 140.482065,0 179.059742,0 C219.31471,0 238.483742,18.9294194 238.483742,57.7467097 C238.483742,97.0432258 220.273161,118.848 177.622065,118.848 C137.367097,118.848 117,97.2828387 117,59.9032258 Z" id="o"></path>
            </g>
        </g>
    </g>
</svg>