<?xml version="1.0" encoding="UTF-8" standalone="no"?>
<svg width="91px" height="107px" viewBox="0 0 91 107" version="1.1" xmlns="http://www.w3.org/2000/svg" xmlns:xlink="http://www.w3.org/1999/xlink">
    <!-- Generator: Sketch 50.2 (55047) - http://www.bohemiancoding.com/sketch -->
    <title>&amp; Symbol</title>
    <desc>Created with Sketch.</desc>
    <defs>
        <rect id="path-1" x="0.8" y="0.312" width="87" height="74.688"></rect>
    </defs>
    <g id="Page-1" stroke="none" stroke-width="1" fill="none" fill-rule="evenodd">
        <g id="About---Designer-Story" transform="translate(-666.000000, -516.000000)">
            <g id="&amp;-Symbol" transform="translate(656.000000, 514.000000)">
                <path d="M44.784,15.992 C44.784,18.4880125 45.479993,21.4639827 46.872,24.92 C48.264007,28.3760173 49.8239914,31.8319827 51.552,35.288 C53.1840082,34.3279952 54.7919921,33.3200053 56.376,32.264 C57.9600079,31.2079947 59.351994,29.9600072 60.552,28.52 C61.752006,27.0799928 62.7359962,25.4000096 63.504,23.48 C64.2720038,21.5599904 64.656,19.304013 64.656,16.712 C64.656,13.4479837 63.8640079,10.5680125 62.28,8.072 C60.6959921,5.57598752 57.9840192,4.328 54.144,4.328 C51.6479875,4.328 49.4640094,5.43198896 47.592,7.64 C45.7199906,9.84801104 44.784,12.6319832 44.784,15.992 Z M39.6,42.488 C34.607975,45.080013 30.6240149,48.079983 27.648,51.488 C24.6719851,54.896017 23.184,59.3839722 23.184,64.952 C23.184,69.2720216 23.9519923,73.8079762 25.488,78.56 C27.0240077,83.3120238 29.0399875,87.6559803 31.536,91.592 C34.0320125,95.5280197 36.8399844,98.7679873 39.96,101.312 C43.0800156,103.856013 46.2239842,105.128 49.392,105.128 C52.8480173,105.128 56.0879849,104.288008 59.112,102.608 C62.1360151,100.927992 64.9919866,98.8400125 67.68,96.344 L39.6,42.488 Z M77.328,84.824 C80.1120139,80.1199765 82.007995,75.464023 83.016,70.856 C84.024005,66.247977 84.528,61.640023 84.528,57.032 C84.528,52.423977 84.3120022,48.7520137 83.88,46.016 C83.4479978,43.2799863 82.7040053,41.1920072 81.648,39.752 C80.5919947,38.3119928 79.1760089,37.3760022 77.4,36.944 C75.6239911,36.5119978 73.3920134,36.296 70.704,36.296 L70.704,34.28 L98.064,34.28 L98.064,36.296 C95.5679875,36.296 93.5520077,36.6319966 92.016,37.304 C90.4799923,37.9760034 89.3040041,39.0319928 88.488,40.472 C87.6719959,41.9120072 87.1440012,43.7599887 86.904,46.016 C86.6639988,48.2720113 86.544,50.9839842 86.544,54.152 C86.544,58.0880197 86.3520019,61.5919846 85.968,64.664 C85.5839981,67.7360154 85.0560034,70.5439873 84.384,73.088 C83.7119966,75.6320127 82.8480053,78.0319887 81.792,80.288 C80.7359947,82.5440113 79.5840062,84.775989 78.336,86.984 C80.8320125,91.592023 83.0399904,95.2159868 84.96,97.856 C86.8800096,100.496013 89.0879875,101.816 91.584,101.816 C93.1200077,101.816 94.3439954,101.384004 95.256,100.52 C96.1680046,99.6559957 96.8639976,98.5520067 97.344,97.208 C97.8240024,95.8639933 98.159999,94.4000079 98.352,92.816 C98.544001,91.2319921 98.64,89.6720077 98.64,88.136 L100.656,88.136 C100.656,92.1680202 100.128005,95.5039868 99.072,98.144 C98.0159947,100.784013 96.6960079,102.919992 95.112,104.552 C93.5279921,106.184008 91.7280101,107.335997 89.712,108.008 C87.6959899,108.680003 85.7760091,109.016 83.952,109.016 C81.9359899,109.016 80.2080072,108.800002 78.768,108.368 C77.3279928,107.935998 76.0560055,107.264005 74.952,106.352 C73.8479945,105.439995 72.8160048,104.312007 71.856,102.968 C70.8959952,101.623993 69.8400058,100.040009 68.688,98.216 C67.5359942,99.3680058 66.0960086,100.567994 64.368,101.816 C62.6399914,103.064006 60.6960108,104.215995 58.536,105.272 C56.3759892,106.328005 54.000013,107.215996 51.408,107.936 C48.815987,108.656004 46.0320149,109.016 43.056,109.016 C37.0079698,109.016 31.9200206,107.840012 27.792,105.488 C23.6639794,103.135988 20.3280127,100.304017 17.784,96.992 C15.2399873,93.6799834 13.4400053,90.1760185 12.384,86.48 C11.3279947,82.7839815 10.8,79.640013 10.8,77.048 C10.8,72.055975 11.6879911,67.6880187 13.464,63.944 C15.2400089,60.1999813 17.4959863,56.9120142 20.232,54.08 C22.9680137,51.2479858 25.9679837,48.7760106 29.232,46.664 C32.4960163,44.5519894 35.6639846,42.6320086 38.736,40.904 C37.6799947,38.7919894 36.6240053,36.3200142 35.568,33.488 C34.5119947,30.6559858 33.984,27.2240202 33.984,23.192 C33.984,19.9279837 34.5599942,17.0240127 35.712,14.48 C36.8640058,11.9359873 38.3519909,9.75200912 40.176,7.928 C42.0000091,6.10399088 44.0879882,4.7120048 46.44,3.752 C48.7920118,2.7919952 51.167988,2.312 53.568,2.312 C57.2160182,2.312 60.3119873,3.46398848 62.856,5.768 C65.4000127,8.07201152 66.672,11.6719755 66.672,16.568 C66.672,19.4480144 66.2160046,21.9679892 65.304,24.128 C64.3919954,26.2880108 63.240007,28.1839918 61.848,29.816 C60.455993,31.4480082 58.8960086,32.8399942 57.168,33.992 C55.4399914,35.1440058 53.8080077,36.1519957 52.272,37.016 L77.328,84.824 Z" id="&amp;" fill="#252527"></path>
                <g id="&amp;" transform="translate(10.000000, 0.000000)">
                    <mask id="mask-2" fill="white">
                        <use xlink:href="#path-1"></use>
                    </mask>
                    <g id="Mask"></g>
                    <path d="M34.784,15.992 C34.784,18.4880125 35.479993,21.4639827 36.872,24.92 C38.264007,28.3760173 39.8239914,31.8319827 41.552,35.288 C43.1840082,34.3279952 44.7919921,33.3200053 46.376,32.264 C47.9600079,31.2079947 49.351994,29.9600072 50.552,28.52 C51.752006,27.0799928 52.7359962,25.4000096 53.504,23.48 C54.2720038,21.5599904 54.656,19.304013 54.656,16.712 C54.656,13.4479837 53.8640079,10.5680125 52.28,8.072 C50.6959921,5.57598752 47.9840192,4.328 44.144,4.328 C41.6479875,4.328 39.4640094,5.43198896 37.592,7.64 C35.7199906,9.84801104 34.784,12.6319832 34.784,15.992 Z M29.6,42.488 C24.607975,45.080013 20.6240149,48.079983 17.648,51.488 C14.6719851,54.896017 13.184,59.3839722 13.184,64.952 C13.184,69.2720216 13.9519923,73.8079762 15.488,78.56 C17.0240077,83.3120238 19.0399875,87.6559803 21.536,91.592 C24.0320125,95.5280197 26.8399844,98.7679873 29.96,101.312 C33.0800156,103.856013 36.2239842,105.128 39.392,105.128 C42.8480173,105.128 46.0879849,104.288008 49.112,102.608 C52.1360151,100.927992 54.9919866,98.8400125 57.68,96.344 L29.6,42.488 Z M67.328,84.824 C70.1120139,80.1199765 72.007995,75.464023 73.016,70.856 C74.024005,66.247977 74.528,61.640023 74.528,57.032 C74.528,52.423977 74.3120022,48.7520137 73.88,46.016 C73.4479978,43.2799863 72.7040053,41.1920072 71.648,39.752 C70.5919947,38.3119928 69.1760089,37.3760022 67.4,36.944 C65.6239911,36.5119978 63.3920134,36.296 60.704,36.296 L60.704,34.28 L88.064,34.28 L88.064,36.296 C85.5679875,36.296 83.5520077,36.6319966 82.016,37.304 C80.4799923,37.9760034 79.3040041,39.0319928 78.488,40.472 C77.6719959,41.9120072 77.1440012,43.7599887 76.904,46.016 C76.6639988,48.2720113 76.544,50.9839842 76.544,54.152 C76.544,58.0880197 76.3520019,61.5919846 75.968,64.664 C75.5839981,67.7360154 75.0560034,70.5439873 74.384,73.088 C73.7119966,75.6320127 72.8480053,78.0319887 71.792,80.288 C70.7359947,82.5440113 69.5840062,84.775989 68.336,86.984 C70.8320125,91.592023 73.0399904,95.2159868 74.96,97.856 C76.8800096,100.496013 79.0879875,101.816 81.584,101.816 C83.1200077,101.816 84.3439954,101.384004 85.256,100.52 C86.1680046,99.6559957 86.8639976,98.5520067 87.344,97.208 C87.8240024,95.8639933 88.159999,94.4000079 88.352,92.816 C88.544001,91.2319921 88.64,89.6720077 88.64,88.136 L90.656,88.136 C90.656,92.1680202 90.1280053,95.5039868 89.072,98.144 C88.0159947,100.784013 86.6960079,102.919992 85.112,104.552 C83.5279921,106.184008 81.7280101,107.335997 79.712,108.008 C77.6959899,108.680003 75.7760091,109.016 73.952,109.016 C71.9359899,109.016 70.2080072,108.800002 68.768,108.368 C67.3279928,107.935998 66.0560055,107.264005 64.952,106.352 C63.8479945,105.439995 62.8160048,104.312007 61.856,102.968 C60.8959952,101.623993 59.8400058,100.040009 58.688,98.216 C57.5359942,99.3680058 56.0960086,100.567994 54.368,101.816 C52.6399914,103.064006 50.6960108,104.215995 48.536,105.272 C46.3759892,106.328005 44.000013,107.215996 41.408,107.936 C38.815987,108.656004 36.0320149,109.016 33.056,109.016 C27.0079698,109.016 21.9200206,107.840012 17.792,105.488 C13.6639794,103.135988 10.3280127,100.304017 7.784,96.992 C5.23998728,93.6799834 3.44000528,90.1760185 2.384,86.48 C1.32799472,82.7839815 0.8,79.640013 0.8,77.048 C0.8,72.055975 1.68799112,67.6880187 3.464,63.944 C5.24000888,60.1999813 7.49598632,56.9120142 10.232,54.08 C12.9680137,51.2479858 15.9679837,48.7760106 19.232,46.664 C22.4960163,44.5519894 25.6639846,42.6320086 28.736,40.904 C27.6799947,38.7919894 26.6240053,36.3200142 25.568,33.488 C24.5119947,30.6559858 23.984,27.2240202 23.984,23.192 C23.984,19.9279837 24.5599942,17.0240127 25.712,14.48 C26.8640058,11.9359873 28.3519909,9.75200912 30.176,7.928 C32.0000091,6.10399088 34.0879882,4.7120048 36.44,3.752 C38.7920118,2.7919952 41.167988,2.312 43.568,2.312 C47.2160182,2.312 50.3119873,3.46398848 52.856,5.768 C55.4000127,8.07201152 56.672,11.6719755 56.672,16.568 C56.672,19.4480144 56.2160046,21.9679892 55.304,24.128 C54.3919954,26.2880108 53.240007,28.1839918 51.848,29.816 C50.455993,31.4480082 48.8960086,32.8399942 47.168,33.992 C45.4399914,35.1440058 43.8080077,36.1519957 42.272,37.016 L67.328,84.824 Z" fill="#FFFFFF" mask="url(#mask-2)"></path>
                </g>
            </g>
        </g>
    </g>
</svg>