<?xml version="1.0" encoding="UTF-8" standalone="no"?>
<svg width="18px" height="18px" viewBox="0 0 18 18" version="1.1" xmlns="http://www.w3.org/2000/svg" xmlns:xlink="http://www.w3.org/1999/xlink">
    <!-- Generator: Sketch 50.2 (55047) - http://www.bohemiancoding.com/sketch -->
    <title>logo-instagram</title>
    <desc>Created with Sketch.</desc>
    <defs></defs>
    <g id="Symbols" stroke="none" stroke-width="1" fill="none" fill-rule="evenodd">
        <g id="Footer" transform="translate(-1283.000000, -27.000000)" fill="#252527" fill-rule="nonzero">
            <g id="Social-media" transform="translate(1243.000000, 27.000000)">
                <g id="logo-instagram" transform="translate(40.000000, 0.000000)">
                    <path d="M9,1.6215 C11.403,1.6215 11.688,1.6305 12.63675,1.674 C13.66125,1.7205 14.6115,1.926 15.34275,2.65725 C16.074,3.3885 16.2795,4.33875 16.326,5.36325 C16.3695,6.312 16.3785,6.597 16.3785,9 C16.3785,11.403 16.3695,11.688 16.326,12.63675 C16.2795,13.66125 16.074,14.6115 15.34275,15.34275 C14.6115,16.074 13.66125,16.2795 12.63675,16.326 C11.688,16.3695 11.403,16.3785 9,16.3785 C6.597,16.3785 6.312,16.3695 5.36325,16.326 C4.33875,16.2795 3.3885,16.074 2.65725,15.34275 C1.926,14.6115 1.7205,13.66125 1.674,12.63675 C1.6305,11.688 1.6215,11.403 1.6215,9 C1.6215,6.597 1.6305,6.312 1.674,5.36325 C1.7205,4.33875 1.926,3.3885 2.65725,2.65725 C3.3885,1.926 4.33875,1.7205 5.36325,1.674 C6.312,1.6305 6.597,1.6215 9,1.6215 Z M9,0 C6.55575,0 6.249,0.0105 5.289,0.054 C3.8265,0.12075 2.54175,0.47925 1.5105,1.5105 C0.47925,2.54175 0.12075,3.8265 0.054,5.289 C0.0105,6.249 0,6.55575 0,9 C0,11.44425 0.0105,11.751 0.054,12.711 C0.12075,14.1735 0.47925,15.45825 1.5105,16.4895 C2.54175,17.52075 3.8265,17.87925 5.289,17.946 C6.249,17.9895 6.55575,18 9,18 C11.44425,18 11.751,17.9895 12.711,17.946 C14.1735,17.87925 15.45825,17.52075 16.4895,16.4895 C17.52075,15.45825 17.87925,14.1735 17.946,12.711 C17.9895,11.751 18,11.44425 18,9 C18,6.55575 17.9895,6.249 17.946,5.289 C17.87925,3.8265 17.52075,2.54175 16.4895,1.5105 C15.45825,0.47925 14.1735,0.12075 12.711,0.054 C11.751,0.0105 11.44425,0 9,0 Z" id="Shape"></path>
                    <path d="M9,4.3785 C6.44775,4.3785 4.3785,6.44775 4.3785,9 C4.3785,11.55225 6.44775,13.6215 9,13.6215 C11.55225,13.6215 13.6215,11.55225 13.6215,9 C13.6215,6.44775 11.55225,4.3785 9,4.3785 Z M9,12 C7.34325,12 6,10.65675 6,9 C6,7.34325 7.34325,6 9,6 C10.65675,6 12,7.34325 12,9 C12,10.65675 10.65675,12 9,12 Z" id="Shape"></path>
                    <circle id="Oval" cx="13.8045" cy="4.1955" r="1.08"></circle>
                </g>
            </g>
        </g>
    </g>
</svg>