<?xml version="1.0" encoding="UTF-8" standalone="no"?>
<svg width="154px" height="43px" viewBox="0 0 154 43" version="1.1" xmlns="http://www.w3.org/2000/svg" xmlns:xlink="http://www.w3.org/1999/xlink">
    <!-- Generator: Sketch 50.2 (55047) - http://www.bohemiancoding.com/sketch -->
    <title>Logo</title>
    <desc>Created with Sketch.</desc>
    <defs></defs>
    <g id="Page-1" stroke="none" stroke-width="1" fill="none" fill-rule="evenodd">
        <g id="Home-2@2x" transform="translate(-79.000000, -34.000000)" fill="#FFFFFF" fill-rule="nonzero">
            <g id="NAV" transform="translate(79.000000, 34.000000)">
                <g id="Logo">
                    <path d="M15.3637037,26.0429882 C14.1158025,26.4068343 12.6730247,26.5887574 11.0353704,26.5887574 C9.50258089,26.6083829 7.98136797,26.3258912 6.56185185,25.7580178 C3.95101886,24.7185631 1.90122091,22.6561548 0.907407407,20.068787 C0.380641994,18.7105796 0.116864405,17.2677987 0.12962963,15.8145858 C0.115908405,14.3603686 0.383350463,12.9167919 0.917777778,11.5603846 C1.41244794,10.2992757 2.16206215,9.1494608 3.12148148,8.18017751 C4.08852143,7.21917565 5.24623025,6.4631662 6.52296296,5.95893491 C7.91468857,5.41178048 9.4027208,5.13942212 10.9018519,5.15745562 C12.2146649,5.14462331 13.5194269,5.35997777 14.7557407,5.7935503 C15.8789297,6.18738632 16.9253774,6.76649177 17.85,7.50591716 L17.3833333,7.96390533 C16.9749818,7.58804352 16.5187862,7.2656226 16.0261111,7.00467456 C15.5021012,6.72454436 14.9543047,6.48957974 14.3888889,6.30242604 C13.2555661,5.92677877 12.068231,5.73178226 10.872037,5.72485207 C9.44897408,5.70593139 8.03710685,5.97396052 6.72388889,6.51233728 C5.51842408,7.01036634 4.43029722,7.74654437 3.52722222,8.67505917 C2.63614871,9.60293308 1.94250653,10.6958408 1.48685185,11.8898817 C1.00621414,13.1440925 0.765821683,14.4746576 0.777777778,15.8145858 C0.769347509,17.1629661 1.00640379,18.5019834 1.47777778,19.7685503 C1.92121029,20.9753437 2.60911445,22.0814876 3.5,23.0202663 C4.41214612,23.9653267 5.51617145,24.7120707 6.74074074,25.2122485 C8.0154321,25.7474162 9.46037037,26.015 11.0755556,26.015 C12.3350519,26.0318226 13.5914003,25.8872687 14.8127778,25.585 C15.8487345,25.3181862 16.85591,24.953484 17.8201852,24.4960059 L17.8201852,16.5321006 L12.4444444,16.5321006 L12.4444444,15.9876036 L18.457963,15.9876036 L18.457963,24.8407692 C17.4719553,25.3460337 16.4349212,25.7489547 15.3637037,26.0429882 Z" id="Shape"></path>
                    <path d="M24.3301852,26.0137278 L24.3301852,5.72485207 L36.3857407,5.72485207 L36.3857407,6.29733728 L24.9718519,6.29733728 L24.9718519,15.2026627 L35.7142593,15.2026627 L35.7142593,15.7751479 L24.9718519,15.7751479 L24.9718519,25.443787 L36.8537037,25.443787 L36.8537037,26.0162722 L24.3301852,26.0137278 Z M28.0375926,0 L31.0437037,4.12571006 L30.4888889,4.12571006 L27.2494444,0 L28.0375926,0 Z" id="Shape"></path>
                    <polygon id="Shape" points="57.1135185 26.0137278 42.2838889 6.53269231 42.197037 6.53269231 42.197037 26.0137278 41.5488889 26.0137278 41.5488889 5.72485207 42.4562963 5.72485207 57.317037 25.1829882 57.4038889 25.1829882 57.4038889 5.72485207 58.052037 5.72485207 58.052037 26.0137278"></polygon>
                    <path d="M79.357963,26.0137278 L76.9053704,20.1972781 L64.9068519,20.1972781 L62.3674074,26.0137278 L61.6674074,26.0137278 L70.6287037,5.72485207 L71.4466667,5.72485207 L80.057963,26.0086391 L79.357963,26.0137278 Z M71.0085185,6.13068047 L65.1401852,19.6540533 L76.7005556,19.6540533 L71.0085185,6.13068047 Z" id="Shape"></path>
                    <polygon id="Shape" points="88.9907407 26.0137278 87.9977778 26.0137278 80.232963 5.72485207 80.932963 5.72485207 88.4657407 25.443787 88.5240741 25.443787 96.1722222 5.72485207 96.8722222 5.72485207"></polygon>
                    <path d="M114.737778,26.0137278 L112.285185,20.1972781 L100.287963,20.1972781 L97.7485185,26.0137278 L97.0485185,26.0137278 L106.009815,5.72485207 L106.827778,5.72485207 L115.439074,26.0086391 L114.737778,26.0137278 Z M106.388333,6.13068047 L100.521296,19.6540533 L112.081667,19.6540533 L106.388333,6.13068047 Z" id="Shape"></path>
                    <polygon id="Shape" points="134.617778 26.0137278 119.788148 6.53269231 119.701296 6.53269231 119.701296 26.0137278 119.053148 26.0137278 119.053148 5.72485207 119.960556 5.72485207 134.82 25.1778994 134.906852 25.1778994 134.906852 5.72485207 135.555 5.72485207 135.555 26.0137278"></polygon>
                    <polygon id="Shape" points="146.84963 6.30242604 146.84963 26.0137278 146.201481 26.0137278 146.201481 6.30242604 139.166481 6.30242604 139.166481 5.72485207 153.879444 5.72485207 153.879444 6.29733728"></polygon>
                    <polygon id="Shape" points="51.8518519 42.6895858 51.8518519 34.5831953 52.1111111 34.5831953 52.1111111 42.4605917 56.2177778 42.4605917 56.2177778 42.6895858"></polygon>
                    <path d="M65.2698148,38.6363905 C65.2753095,39.2257701 65.1648319,39.8106499 64.9444444,40.3589349 C64.7432986,40.8626358 64.441871,41.3219383 64.0577778,41.71 C63.674347,42.093221 63.2157257,42.3961679 62.7096296,42.6005325 C61.6238801,43.0278591 60.4120458,43.0278591 59.3262963,42.6005325 C58.8201491,42.3962616 58.3615097,42.0933028 57.9781481,41.71 C57.5940549,41.3219383 57.2926274,40.8626358 57.0914815,40.3589349 C56.6636852,39.2485071 56.6636852,38.0230018 57.0914815,36.912574 C57.2926274,36.4088731 57.5940549,35.9495705 57.9781481,35.5615089 C58.3599302,35.1792936 58.8162194,34.8764312 59.3198148,34.6709763 C60.4095887,34.243604 61.6250409,34.243604 62.7148148,34.6709763 C63.2183597,34.8765234 63.6746312,35.179374 64.0564815,35.5615089 C64.4408493,35.9496057 64.7426965,36.4088762 64.9444444,36.912574 C65.1648391,37.4613005 65.2753139,38.0465976 65.2698148,38.6363905 Z M65.0105556,38.6363905 C65.0146813,38.0948 64.9157653,37.5572116 64.7188889,37.0512426 C64.533183,36.57327 64.2534912,36.1358143 63.8957407,35.763787 C63.5377902,35.3949401 63.1074044,35.1010903 62.6305556,34.8999704 C61.5998177,34.4802824 60.4412934,34.4802824 59.4105556,34.8999704 C58.9336892,35.1010594 58.5032975,35.3949132 58.1453704,35.763787 C57.7873419,36.1360878 57.5076246,36.5740155 57.3222222,37.0525148 C57.127628,37.5584754 57.0309121,38.0956211 57.037037,38.6363905 C57.0327988,39.1779474 57.1299021,39.7156666 57.3235185,40.2228107 C57.5045352,40.7005249 57.7798597,41.1384721 58.1337037,41.5115385 C58.4889208,41.881206 58.9178035,42.1752346 59.3937037,42.375355 C60.4405781,42.7951806 61.613496,42.7951806 62.6603704,42.375355 C63.1362705,42.1752346 63.5651533,41.881206 63.9203704,41.5115385 C64.2740157,41.1388072 64.5493255,40.7013157 64.7305556,40.2240828 C64.9228885,39.7162641 65.0186711,39.1781279 65.0131481,38.6363905 L65.0105556,38.6363905 Z" id="Shape"></path>
                    <polygon id="Shape" points="73.5648148 42.6895858 67.6381481 34.903787 67.6031481 34.903787 67.6031481 42.6895858 67.3438889 42.6895858 67.3438889 34.5831953 67.7055556 34.5831953 73.6438889 42.3575444 73.6788889 42.3575444 73.6788889 34.5831953 73.9381481 34.5831953 73.9381481 42.6895858"></polygon>
                    <path d="M83.3064815,38.6363905 C83.3248346,39.259855 83.207733,39.8800106 82.962963,40.4556213 C82.7450042,40.9436509 82.4138537,41.3749407 81.9959259,41.7150888 C81.5684812,42.0554539 81.0749577,42.3069327 80.5453704,42.4542308 C79.9643217,42.6180164 79.3623026,42.6989922 78.7577778,42.6946746 L76.4114815,42.6946746 L76.4114815,34.5831953 L78.7525926,34.5831953 C79.3566829,34.5787364 79.9584198,34.657533 80.5401852,34.8172781 C81.069983,34.9608484 81.56383,35.2103264 81.9907407,35.5500592 C82.4097241,35.8917849 82.7409807,36.3253919 82.9577778,36.8158876 C83.2032917,37.3918675 83.3221179,38.0122324 83.3064815,38.6363905 Z M76.6681481,34.8121893 L76.6681481,42.4605917 L78.6851852,42.4605917 C79.2655397,42.4647045 79.8436416,42.3893432 80.4027778,42.2366864 C80.9070154,42.1023573 81.3780779,41.868609 81.7872222,41.5497041 C82.1844424,41.2306189 82.5004496,40.8250971 82.7101852,40.3652959 C83.1623029,39.2531966 83.1623029,38.0132236 82.7101852,36.9011243 C82.5016441,36.4388306 82.185524,36.0309853 81.7872222,35.710355 C81.3786017,35.3920619 80.907211,35.1603166 80.4027778,35.0297337 C79.842932,34.8811933 79.2651141,34.8080088 78.6851852,34.8121893 L76.6681481,34.8121893 Z" id="Shape"></path>
                    <path d="M93.4914815,38.6363905 C93.498627,39.2254375 93.3899121,39.810306 93.1712963,40.3589349 C92.9701504,40.8626358 92.6687229,41.3219383 92.2846296,41.71 C91.9015788,42.0930788 91.443411,42.3960174 90.9377778,42.6005325 C89.8520283,43.0278591 88.640194,43.0278591 87.5544444,42.6005325 C87.0482973,42.3962616 86.5896578,42.0933028 86.2062963,41.71 C85.8222031,41.3219383 85.5207755,40.8626358 85.3196296,40.3589349 C84.8919528,39.2484857 84.8919528,38.0230232 85.3196296,36.912574 C85.5200049,36.4090847 85.8205409,35.9497978 86.2037037,35.5615089 C86.5854857,35.1792936 87.0417749,34.8764312 87.5453704,34.6709763 C88.6351442,34.243604 89.8505965,34.243604 90.9403704,34.6709763 C91.4439321,34.8764927 91.9002095,35.1793472 92.282037,35.5615089 C92.6659125,35.9497403 92.9673102,36.4089974 93.1687037,36.912574 C93.3882124,37.4614724 93.4978059,38.0467639 93.4914815,38.6363905 Z M93.2322222,38.6363905 C93.2378119,38.0946091 93.1402115,37.5565715 92.9444444,37.0499704 C92.7591555,36.5720866 92.4799054,36.1346329 92.1225926,35.7625148 C91.7646655,35.393641 91.3342737,35.0997872 90.8574074,34.8986982 C89.826698,34.47887 88.6681168,34.47887 87.6374074,34.8986982 C87.1600776,35.0996379 86.7292327,35.3935001 86.3709259,35.7625148 C86.0133889,36.1349474 85.7341206,36.572862 85.5490741,37.0512426 C85.3521389,37.5571955 85.2532208,38.0947949 85.2574074,38.6363905 C85.2531986,39.1779449 85.3503009,39.715659 85.5438889,40.2228107 C85.7248749,40.7005396 86.0002029,41.1384924 86.3540741,41.5115385 C86.7092912,41.881206 87.1381739,42.1752346 87.6140741,42.375355 C88.6609757,42.7950445 89.8338391,42.7950445 90.8807407,42.375355 C91.356677,42.1752983 91.7855722,41.8812612 92.1407407,41.5115385 C92.4921819,41.137858 92.7652699,40.699965 92.9444444,40.2228107 C93.1392169,39.7158651 93.237634,39.1781696 93.2348148,38.6363905 L93.2322222,38.6363905 Z" id="Shape"></path>
                    <polygon id="Shape" points="101.786481 42.6895858 95.8598148 34.903787 95.8248148 34.903787 95.8248148 42.6895858 95.5655556 42.6895858 95.5655556 34.5831953 95.9259259 34.5831953 101.864259 42.3575444 101.899259 42.3575444 101.899259 34.5831953 102.158519 34.5831953 102.158519 42.6895858"></polygon>
                </g>
            </g>
        </g>
    </g>
</svg>