<?xml version="1.0" encoding="UTF-8" standalone="no"?>
<svg width="18px" height="15px" viewBox="0 0 18 15" version="1.1" xmlns="http://www.w3.org/2000/svg" xmlns:xlink="http://www.w3.org/1999/xlink">
    <!-- Generator: Sketch 50.2 (55047) - http://www.bohemiancoding.com/sketch -->
    <title>logo-twitter</title>
    <desc>Created with Sketch.</desc>
    <defs></defs>
    <g id="Symbols" stroke="none" stroke-width="1" fill="none" fill-rule="evenodd">
        <g id="Footer" transform="translate(-1323.000000, -29.000000)" fill="#252527" fill-rule="nonzero">
            <g id="Social-media" transform="translate(1243.000000, 27.000000)">
                <g id="logo-twitter" transform="translate(80.000000, 2.000000)">
                    <path d="M18,1.95 C17.325,2.25 16.65,2.475 15.9,2.55 C16.65,2.1 17.25,1.35 17.55,0.525 C16.8,0.975 16.05,1.275 15.225,1.425 C14.55,0.675 13.575,0.225 12.525,0.225 C10.5,0.225 8.85,1.875 8.85,3.9 C8.85,4.2 8.85,4.5 8.925,4.725 C5.775,4.575 3.075,3.075 1.275,0.825 C0.9,1.425 0.75,2.025 0.75,2.7 C0.75,3.975 1.425,5.1 2.4,5.775 C1.8,5.775 1.2,5.625 0.75,5.325 C0.75,5.325 0.75,5.325 0.75,5.4 C0.75,7.2 2.025,8.7 3.675,9 C3.375,9.075 3.075,9.15 2.7,9.15 C2.475,9.15 2.25,9.15 2.025,9.075 C2.475,10.575 3.825,11.625 5.475,11.625 C4.2,12.6 2.625,13.2 0.9,13.2 C0.6,13.2 0.3,13.2 1.77635684e-15,13.125 C1.65,14.175 3.6,14.775 5.625,14.775 C12.45,14.775 16.125,9.15 16.125,4.275 C16.125,4.125 16.125,3.975 16.125,3.825 C16.875,3.3 17.475,2.625 18,1.95 Z" id="Shape"></path>
                </g>
            </g>
        </g>
    </g>
</svg>