<?xml version="1.0" encoding="UTF-8" standalone="no"?>
<svg width="18px" height="18px" viewBox="0 0 18 18" version="1.1" xmlns="http://www.w3.org/2000/svg" xmlns:xlink="http://www.w3.org/1999/xlink">
    <!-- Generator: Sketch 50.2 (55047) - http://www.bohemiancoding.com/sketch -->
    <title>logo-flickr</title>
    <desc>Created with Sketch.</desc>
    <defs></defs>
    <g id="Symbols" stroke="none" stroke-width="1" fill="none" fill-rule="evenodd">
        <g id="Footer" transform="translate(-1363.000000, -27.000000)" fill="#252527" fill-rule="nonzero">
            <g id="Social-media" transform="translate(1243.000000, 27.000000)">
                <g id="logo-flickr" transform="translate(120.000000, 0.000000)">
                    <path d="M17.25,0 L0.75,0 C0.3,0 0,0.3 0,0.75 L0,17.25 C0,17.7 0.3,18 0.75,18 L17.25,18 C17.7,18 18,17.7 18,17.25 L18,0.75 C18,0.3 17.7,0 17.25,0 Z M5.25,12 C3.6,12 2.25,10.65 2.25,9 C2.25,7.35 3.6,6 5.25,6 C6.9,6 8.25,7.35 8.25,9 C8.25,10.65 6.9,12 5.25,12 Z M12.75,12 C11.1,12 9.75,10.65 9.75,9 C9.75,7.35 11.1,6 12.75,6 C14.4,6 15.75,7.35 15.75,9 C15.75,10.65 14.4,12 12.75,12 Z" id="Shape"></path>
                </g>
            </g>
        </g>
    </g>
</svg>